<svg width="1774" height="86" viewBox="0 0 1774 86" fill="none" xmlns="http://www.w3.org/2000/svg">
<path d="M69.2881 35.488C69.379 34.2039 69.0381 33.2096 68.2653 32.5051C67.504 31.8005 66.2994 31.4483 64.6517 31.4483C63.5608 31.4483 62.629 31.5903 61.8562 31.8744C61.0835 32.1471 60.4756 32.5335 60.0324 33.0335C59.5892 33.5221 59.3108 34.0903 59.1972 34.738C59.0949 35.2494 59.1233 35.7039 59.2824 36.1017C59.4415 36.4994 59.7199 36.8517 60.1176 37.1585C60.5267 37.4653 61.0324 37.7324 61.6347 37.9596C62.2483 38.1869 62.9358 38.3858 63.6972 38.5562L66.5608 39.238C68.2199 39.613 69.6574 40.113 70.8733 40.738C72.1006 41.3517 73.0949 42.096 73.8562 42.971C74.6176 43.8346 75.1403 44.8289 75.4244 45.9539C75.7085 47.0789 75.7312 48.3403 75.4926 49.738C75.129 51.9426 74.2597 53.8346 72.8847 55.4142C71.521 56.9937 69.7369 58.2039 67.5324 59.0449C65.3392 59.8858 62.7881 60.3062 59.879 60.3062C56.9699 60.3062 54.4983 59.8687 52.4642 58.9937C50.4415 58.1074 48.9756 56.7721 48.0665 54.988C47.1574 53.2039 46.9131 50.9539 47.3335 48.238L55.396 48.238C55.271 49.363 55.4131 50.3005 55.8222 51.0505C56.2426 51.8005 56.8903 52.3687 57.7653 52.7551C58.6403 53.1414 59.6972 53.3346 60.9358 53.3346C62.0722 53.3346 63.0665 53.1812 63.9187 52.8744C64.7824 52.5676 65.4699 52.1414 65.9812 51.596C66.504 51.0505 66.8222 50.4255 66.9358 49.721C67.0494 49.0733 66.9415 48.5108 66.6119 48.0335C66.2937 47.5562 65.7483 47.1414 64.9756 46.7892C64.2142 46.4369 63.2142 46.1187 61.9756 45.8346L58.4812 44.9824C55.5949 44.2778 53.4074 43.1528 51.9187 41.6074C50.4415 40.0619 49.9187 37.9653 50.3506 35.3176C50.7142 33.1471 51.6119 31.2494 53.0437 29.6244C54.4869 27.9994 56.3108 26.738 58.5153 25.8403C60.7312 24.9312 63.1687 24.4767 65.8278 24.4767C68.5324 24.4767 70.8051 24.9369 72.646 25.8574C74.4983 26.7664 75.8335 28.0505 76.6517 29.7096C77.4812 31.3574 77.7199 33.2835 77.3676 35.488L69.2881 35.488ZM78.0835 59.863L83.879 24.9539L108.22 24.9539L107.061 31.8062L91.1574 31.8062L89.9983 38.9653L104.657 38.9653L103.498 45.8346L88.8392 45.8346L87.6801 53.0108L103.584 53.0108L102.424 59.863L78.0835 59.863ZM107.709 59.863L113.504 24.9539L127.924 24.9539C130.538 24.9539 132.72 25.4255 134.47 26.3687C136.22 27.3005 137.464 28.6414 138.203 30.3914C138.941 32.1301 139.112 34.1926 138.714 36.5789C138.328 38.988 137.464 41.0392 136.123 42.7324C134.794 44.4142 133.078 45.6983 130.976 46.5846C128.885 47.471 126.51 47.9142 123.851 47.9142L114.731 47.9142L115.856 41.2664L123.407 41.2664C124.669 41.2664 125.76 41.1017 126.68 40.7721C127.601 40.4312 128.334 39.9199 128.879 39.238C129.436 38.5449 129.805 37.6585 129.987 36.5789C130.157 35.4994 130.078 34.6074 129.748 33.9028C129.43 33.1869 128.868 32.6528 128.061 32.3005C127.265 31.9369 126.243 31.7551 124.993 31.7551L120.834 31.7551L116.146 59.863L107.709 59.863ZM130.004 43.9085L136.055 59.863L126.851 59.863L120.987 43.9085L130.004 43.9085ZM152.555 24.9539L156.118 50.5221L156.407 50.5221L168.459 24.9539L177.902 24.9539L160.328 59.863L149.095 59.863L143.112 24.9539L152.555 24.9539ZM190.098 24.9539L184.302 59.863L175.865 59.863L181.66 24.9539L190.098 24.9539ZM224.951 37.6017L216.531 37.6017C216.576 36.7153 216.491 35.9255 216.275 35.2324C216.059 34.5278 215.718 33.9255 215.253 33.4255C214.787 32.9142 214.207 32.5278 213.514 32.2664C212.821 32.0051 212.014 31.8744 211.093 31.8744C209.332 31.8744 207.736 32.3119 206.304 33.1869C204.872 34.0619 203.673 35.3233 202.707 36.971C201.741 38.6187 201.065 40.596 200.679 42.9028C200.326 45.1301 200.332 46.988 200.696 48.4767C201.071 49.9653 201.764 51.0846 202.775 51.8346C203.787 52.5733 205.071 52.9426 206.628 52.9426C207.639 52.9426 208.576 52.8233 209.44 52.5846C210.315 52.3346 211.105 51.9767 211.809 51.5108C212.514 51.0449 213.122 50.4824 213.633 49.8233C214.156 49.1528 214.559 48.4085 214.843 47.5903L223.332 47.5903C222.912 49.1244 222.218 50.6528 221.253 52.1755C220.298 53.6869 219.093 55.0562 217.639 56.2835C216.184 57.5108 214.497 58.4937 212.576 59.2324C210.656 59.971 208.52 60.3403 206.167 60.3403C202.951 60.3403 200.179 59.6187 197.849 58.1755C195.531 56.7324 193.855 54.6414 192.821 51.9028C191.798 49.1528 191.605 45.8233 192.241 41.9142C192.866 38.1301 194.099 34.9426 195.94 32.3517C197.792 29.7608 200.042 27.8005 202.69 26.471C205.349 25.1414 208.184 24.4767 211.196 24.4767C213.378 24.4767 215.338 24.7721 217.076 25.363C218.826 25.9426 220.309 26.7949 221.525 27.9199C222.741 29.0335 223.645 30.4028 224.236 32.0278C224.838 33.6528 225.076 35.5108 224.951 37.6017ZM226.115 59.863L231.91 24.9539L256.251 24.9539L255.092 31.8062L239.189 31.8062L238.03 38.9653L252.689 38.9653L251.53 45.8346L236.87 45.8346L235.711 53.0108L251.615 53.0108L250.456 59.863L226.115 59.863ZM278.632 35.488C278.723 34.2039 278.382 33.2096 277.609 32.5051C276.848 31.8005 275.643 31.4483 273.995 31.4483C272.905 31.4483 271.973 31.5903 271.2 31.8744C270.427 32.1471 269.819 32.5335 269.376 33.0335C268.933 33.5221 268.655 34.0903 268.541 34.738C268.439 35.2494 268.467 35.7039 268.626 36.1017C268.785 36.4994 269.064 36.8517 269.461 37.1585C269.87 37.4653 270.376 37.7324 270.978 37.9596C271.592 38.1869 272.28 38.3858 273.041 38.5562L275.905 39.238C277.564 39.613 279.001 40.113 280.217 40.738C281.444 41.3517 282.439 42.096 283.2 42.971C283.961 43.8346 284.484 44.8289 284.768 45.9539C285.052 47.0789 285.075 48.3403 284.836 49.738C284.473 51.9426 283.603 53.8346 282.228 55.4142C280.865 56.9937 279.081 58.2039 276.876 59.0449C274.683 59.8858 272.132 60.3062 269.223 60.3062C266.314 60.3062 263.842 59.8687 261.808 58.9937C259.785 58.1074 258.319 56.7721 257.41 54.988C256.501 53.2039 256.257 50.9539 256.677 48.238L264.74 48.238C264.615 49.363 264.757 50.3005 265.166 51.0505C265.586 51.8005 266.234 52.3687 267.109 52.7551C267.984 53.1414 269.041 53.3346 270.28 53.3346C271.416 53.3346 272.41 53.1812 273.262 52.8744C274.126 52.5676 274.814 52.1414 275.325 51.596C275.848 51.0505 276.166 50.4255 276.28 49.721C276.393 49.0733 276.285 48.5108 275.956 48.0335C275.637 47.5562 275.092 47.1414 274.319 46.7892C273.558 46.4369 272.558 46.1187 271.319 45.8346L267.825 44.9824C264.939 44.2778 262.751 43.1528 261.262 41.6074C259.785 40.0619 259.262 37.9653 259.694 35.3176C260.058 33.1471 260.956 31.2494 262.387 29.6244C263.831 27.9994 265.655 26.738 267.859 25.8403C270.075 24.9312 272.512 24.4767 275.172 24.4767C277.876 24.4767 280.149 24.9369 281.99 25.8574C283.842 26.7664 285.177 28.0505 285.995 29.7096C286.825 31.3574 287.064 33.2835 286.711 35.488L278.632 35.488Z" fill="white"/>
<rect x="304" y="34" width="1470" height="17" fill="white"/>
</svg>
