<svg width="615" height="144" viewBox="0 0 615 144" fill="none" xmlns="http://www.w3.org/2000/svg">
<path d="M137.929 105H119.793L154.94 35.1818H177.406L189.372 105H171.236L163.565 52.7727H163.02L137.929 105ZM140.111 77.5227H178.02L175.838 90.3409H137.929L140.111 77.5227ZM196.889 105L208.48 35.1818H237.594C242.821 35.1818 247.082 35.9205 250.378 37.3977C253.673 38.875 255.991 40.9432 257.332 43.6023C258.696 46.2614 259.082 49.3409 258.491 52.8409C258.014 55.4773 257.037 57.8409 255.56 59.9318C254.105 62 252.287 63.7273 250.105 65.1136C247.923 66.4773 245.514 67.4318 242.878 67.9773L242.741 68.6591C245.56 68.7727 248.048 69.5227 250.207 70.9091C252.389 72.2955 254.003 74.2386 255.048 76.7386C256.094 79.2159 256.332 82.125 255.764 85.4659C255.151 89.2159 253.639 92.5682 251.23 95.5227C248.844 98.4545 245.696 100.773 241.787 102.477C237.878 104.159 233.355 105 228.219 105H196.889ZM216.082 91.3977H226.514C230.128 91.3977 232.923 90.7045 234.901 89.3182C236.901 87.9091 238.082 85.9773 238.446 83.5227C238.741 81.7273 238.582 80.1818 237.969 78.8864C237.355 77.5682 236.332 76.5568 234.901 75.8523C233.469 75.125 231.662 74.7614 229.48 74.7614H218.741L216.082 91.3977ZM220.616 63.8864H229.991C231.81 63.8864 233.48 63.5795 235.003 62.9659C236.548 62.3523 237.821 61.4659 238.821 60.3068C239.844 59.1477 240.48 57.75 240.73 56.1136C241.116 53.7727 240.582 51.9318 239.128 50.5909C237.673 49.25 235.548 48.5795 232.753 48.5795H223.139L220.616 63.8864ZM332.162 71.1818C330.889 78.7045 328.389 85.0568 324.662 90.2386C320.957 95.3977 316.446 99.3068 311.128 101.966C305.832 104.625 300.139 105.955 294.048 105.955C287.616 105.955 282.048 104.523 277.344 101.659C272.639 98.7955 269.219 94.625 267.082 89.1477C264.969 83.6705 264.56 77.0227 265.855 69.2045C267.082 61.6818 269.548 55.3182 273.253 50.1136C276.98 44.9091 281.514 40.9659 286.855 38.2841C292.219 35.5795 297.969 34.2273 304.105 34.2273C310.491 34.2273 316.026 35.6705 320.707 38.5568C325.412 41.4432 328.821 45.6364 330.935 51.1364C333.048 56.6364 333.457 63.3182 332.162 71.1818ZM315.287 69.2045C315.991 64.8182 315.991 61.125 315.287 58.125C314.605 55.125 313.264 52.8636 311.264 51.3409C309.264 49.7955 306.662 49.0227 303.457 49.0227C299.912 49.0227 296.707 49.8977 293.844 51.6477C291.003 53.375 288.628 55.8977 286.719 59.2159C284.81 62.5114 283.48 66.5 282.73 71.1818C281.957 75.6136 281.935 79.3068 282.662 82.2614C283.412 85.2159 284.81 87.4432 286.855 88.9432C288.901 90.4205 291.503 91.1591 294.662 91.1591C298.185 91.1591 301.355 90.3068 304.173 88.6023C306.991 86.8977 309.344 84.4091 311.23 81.1364C313.139 77.8636 314.491 73.8864 315.287 69.2045ZM390.219 35.1818H407.06L399.594 80.2159C398.73 85.4205 396.741 89.9545 393.628 93.8182C390.537 97.6591 386.594 100.636 381.798 102.75C377.003 104.841 371.662 105.886 365.776 105.886C359.866 105.886 354.878 104.841 350.81 102.75C346.741 100.636 343.798 97.6591 341.98 93.8182C340.162 89.9545 339.673 85.4205 340.514 80.2159L347.98 35.1818H364.855L357.594 78.75C357.207 81.1591 357.389 83.3068 358.139 85.1932C358.912 87.0568 360.162 88.5341 361.889 89.625C363.616 90.6932 365.73 91.2273 368.23 91.2273C370.753 91.2273 373.06 90.6932 375.151 89.625C377.241 88.5341 378.969 87.0568 380.332 85.1932C381.696 83.3068 382.571 81.1591 382.957 78.75L390.219 35.1818ZM413.034 48.8864L415.352 35.1818H474.364L472.045 48.8864H450.875L441.602 105H424.966L434.239 48.8864H413.034Z" fill="white"/>
<rect width="319" height="17" fill="#6CD4F4"/>
<rect x="296" y="127" width="319" height="17" fill="#6CD4F4"/>
</svg>
