<svg width="615" height="144" viewBox="0 0 615 144" fill="none" xmlns="http://www.w3.org/2000/svg">
<path d="M127.186 57.9886C127.05 56.5568 126.732 55.2955 126.232 54.2045C125.732 53.0909 125.05 52.1477 124.186 51.375C123.322 50.6023 122.254 50.0227 120.982 49.6364C119.709 49.2273 118.232 49.0227 116.55 49.0227C113.186 49.0227 110.072 49.8409 107.209 51.4773C104.345 53.1136 101.925 55.5 99.9474 58.6364C97.9702 61.75 96.6179 65.5341 95.8906 69.9886C95.1634 74.4659 95.1406 78.2841 95.8224 81.4432C96.527 84.6023 97.9361 87.0114 100.05 88.6705C102.163 90.3295 104.959 91.1591 108.436 91.1591C111.55 91.1591 114.3 90.6591 116.686 89.6591C119.072 88.6364 121.004 87.1932 122.482 85.3295C123.982 83.4659 124.925 81.2727 125.311 78.75L128.413 79.125H111.436L113.482 66.8182H143.55L142.016 76.0568C140.993 82.3068 138.788 87.6591 135.402 92.1136C132.038 96.5682 127.834 99.9886 122.788 102.375C117.766 104.761 112.254 105.955 106.254 105.955C99.6179 105.955 94.0156 104.511 89.4474 101.625C84.8793 98.7386 81.6293 94.625 79.6974 89.2841C77.7656 83.9205 77.402 77.5568 78.6065 70.1932C79.5611 64.4659 81.2543 59.3864 83.6861 54.9545C86.1406 50.5 89.1406 46.7273 92.6861 43.6364C96.2543 40.5455 100.197 38.2045 104.516 36.6136C108.834 35.0227 113.322 34.2273 117.982 34.2273C122.004 34.2273 125.663 34.8068 128.959 35.9659C132.254 37.125 135.072 38.7614 137.413 40.875C139.754 42.9886 141.516 45.5 142.697 48.4091C143.902 51.3182 144.425 54.5114 144.266 57.9886H127.186ZM160.101 105H141.964L177.112 35.1818H199.578L211.544 105H193.408L185.737 52.7727H185.192L160.101 105ZM162.283 77.5227H200.192L198.01 90.3409H160.101L162.283 77.5227ZM219.061 105L230.652 35.1818H247.527L238.254 91.2955H267.3L264.982 105H219.061ZM273.717 105L285.308 35.1818H302.183L292.911 91.2955H321.956L319.638 105H273.717ZM328.374 105L339.964 35.1818H388.646L386.328 48.8864H354.521L352.203 63.2045H381.521L379.203 76.9432H349.885L347.567 91.2955H379.374L377.055 105H328.374ZM387.624 105L399.214 35.1818H428.055C433.283 35.1818 437.646 36.125 441.146 38.0114C444.646 39.875 447.135 42.5568 448.612 46.0568C450.089 49.5341 450.43 53.6591 449.635 58.4318C448.862 63.25 447.135 67.3523 444.453 70.7386C441.794 74.1023 438.362 76.6705 434.158 78.4432C429.976 80.2159 425.226 81.1023 419.908 81.1023H401.669L403.919 67.8068H419.021C421.544 67.8068 423.726 67.4773 425.567 66.8182C427.408 66.1364 428.874 65.1136 429.964 63.75C431.078 62.3636 431.817 60.5909 432.18 58.4318C432.521 56.2727 432.362 54.4886 431.703 53.0795C431.067 51.6477 429.942 50.5795 428.328 49.875C426.737 49.1477 424.692 48.7841 422.192 48.7841H413.874L404.499 105H387.624ZM432.214 73.0909L444.317 105H425.908L414.18 73.0909H432.214ZM456.956 35.1818H475.808L485.695 64.3977H486.411L505.945 35.1818H524.797L491.558 81.6818L487.672 105H470.899L474.82 81.6818L456.956 35.1818Z" fill="white"/>
<rect width="319" height="17" fill="#6CD4F4"/>
<rect x="296" y="127" width="319" height="17" fill="#6CD4F4"/>
</svg>
