<svg width="615" height="144" viewBox="0 0 615 144" fill="none" xmlns="http://www.w3.org/2000/svg">
<path d="M125.703 60.4773H108.862C108.953 58.7045 108.783 57.125 108.351 55.7386C107.919 54.3295 107.237 53.125 106.305 52.125C105.374 51.1023 104.214 50.3295 102.828 49.8068C101.442 49.2841 99.8281 49.0227 97.9872 49.0227C94.4645 49.0227 91.2713 49.8977 88.4077 51.6477C85.544 53.3977 83.1463 55.9205 81.2145 59.2159C79.2827 62.5114 77.9304 66.4659 77.1577 71.0795C76.4531 75.5341 76.4645 79.25 77.1918 82.2273C77.9418 85.2045 79.3281 87.4432 81.3509 88.9432C83.3736 90.4205 85.9418 91.1591 89.0554 91.1591C91.0781 91.1591 92.9531 90.9205 94.6804 90.4432C96.4304 89.9432 98.0099 89.2273 99.419 88.2955C100.828 87.3636 102.044 86.2386 103.067 84.9205C104.112 83.5795 104.919 82.0909 105.487 80.4545H122.464C121.624 83.5227 120.237 86.5795 118.305 89.625C116.396 92.6477 113.987 95.3864 111.078 97.8409C108.169 100.295 104.794 102.261 100.953 103.739C97.1122 105.216 92.8395 105.955 88.1349 105.955C81.7031 105.955 76.1577 104.511 71.4986 101.625C66.8622 98.7386 63.5099 94.5568 61.4418 89.0795C59.3963 83.5795 59.0099 76.9205 60.2827 69.1023C61.5327 61.5341 63.9986 55.1591 67.6804 49.9773C71.3849 44.7955 75.8849 40.875 81.1804 38.2159C86.4986 35.5568 92.169 34.2273 98.1918 34.2273C102.555 34.2273 106.476 34.8182 109.953 36C113.453 37.1591 116.419 38.8636 118.851 41.1136C121.283 43.3409 123.089 46.0795 124.271 49.3295C125.476 52.5795 125.953 56.2955 125.703 60.4773ZM199.553 71.1818C198.28 78.7045 195.78 85.0568 192.053 90.2386C188.348 95.3977 183.837 99.3068 178.518 101.966C173.223 104.625 167.53 105.955 161.439 105.955C155.007 105.955 149.439 104.523 144.734 101.659C140.03 98.7955 136.609 94.625 134.473 89.1477C132.359 83.6705 131.95 77.0227 133.246 69.2045C134.473 61.6818 136.939 55.3182 140.643 50.1136C144.371 44.9091 148.905 40.9659 154.246 38.2841C159.609 35.5795 165.359 34.2273 171.496 34.2273C177.882 34.2273 183.416 35.6705 188.098 38.5568C192.803 41.4432 196.212 45.6364 198.325 51.1364C200.439 56.6364 200.848 63.3182 199.553 71.1818ZM182.678 69.2045C183.382 64.8182 183.382 61.125 182.678 58.125C181.996 55.125 180.655 52.8636 178.655 51.3409C176.655 49.7955 174.053 49.0227 170.848 49.0227C167.303 49.0227 164.098 49.8977 161.234 51.6477C158.393 53.375 156.018 55.8977 154.109 59.2159C152.2 62.5114 150.871 66.5 150.121 71.1818C149.348 75.6136 149.325 79.3068 150.053 82.2614C150.803 85.2159 152.2 87.4432 154.246 88.9432C156.291 90.4205 158.893 91.1591 162.053 91.1591C165.575 91.1591 168.746 90.3068 171.564 88.6023C174.382 86.8977 176.734 84.4091 178.621 81.1364C180.53 77.8636 181.882 73.8864 182.678 69.2045ZM274.791 35.1818L263.2 105H248.882L227.848 64.7045H227.371L220.655 105H203.78L215.371 35.1818H229.893L250.757 75.4091H251.337L257.95 35.1818H274.791ZM280.8 48.8864L283.118 35.1818H342.129L339.811 48.8864H318.641L309.368 105H292.732L302.004 48.8864H280.8ZM345.163 105H327.027L362.175 35.1818H384.641L396.607 105H378.47L370.8 52.7727H370.254L345.163 105ZM347.345 77.5227H385.254L383.072 90.3409H345.163L347.345 77.5227ZM471.547 60.4773H454.706C454.797 58.7045 454.626 57.125 454.195 55.7386C453.763 54.3295 453.081 53.125 452.149 52.125C451.217 51.1023 450.058 50.3295 448.672 49.8068C447.286 49.2841 445.672 49.0227 443.831 49.0227C440.308 49.0227 437.115 49.8977 434.251 51.6477C431.388 53.3977 428.99 55.9205 427.058 59.2159C425.126 62.5114 423.774 66.4659 423.001 71.0795C422.297 75.5341 422.308 79.25 423.036 82.2273C423.786 85.2045 425.172 87.4432 427.195 88.9432C429.217 90.4205 431.786 91.1591 434.899 91.1591C436.922 91.1591 438.797 90.9205 440.524 90.4432C442.274 89.9432 443.854 89.2273 445.263 88.2955C446.672 87.3636 447.888 86.2386 448.911 84.9205C449.956 83.5795 450.763 82.0909 451.331 80.4545H468.308C467.467 83.5227 466.081 86.5795 464.149 89.625C462.24 92.6477 459.831 95.3864 456.922 97.8409C454.013 100.295 450.638 102.261 446.797 103.739C442.956 105.216 438.683 105.955 433.979 105.955C427.547 105.955 422.001 104.511 417.342 101.625C412.706 98.7386 409.354 94.5568 407.286 89.0795C405.24 83.5795 404.854 76.9205 406.126 69.1023C407.376 61.5341 409.842 55.1591 413.524 49.9773C417.229 44.7955 421.729 40.875 427.024 38.2159C432.342 35.5568 438.013 34.2273 444.036 34.2273C448.399 34.2273 452.32 34.8182 455.797 36C459.297 37.1591 462.263 38.8636 464.695 41.1136C467.126 43.3409 468.933 46.0795 470.115 49.3295C471.32 52.5795 471.797 56.2955 471.547 60.4773ZM480.862 48.8864L483.18 35.1818H542.192L539.874 48.8864H518.703L509.43 105H492.794L502.067 48.8864H480.862Z" fill="white"/>
<rect width="319" height="17" fill="#6CD4F4"/>
<rect x="296" y="127" width="319" height="17" fill="#6CD4F4"/>
</svg>
