<svg width="165" height="300" viewBox="0 0 1618 314" fill="none" xmlns="http://www.w3.org/2000/svg">
<path d="M0 314V0H85.2833V126.949H89.5782L184.065 0H283.46L177.316 139.828L285.914 314H184.065L113.507 196.25L85.2833 233.047V314H0Z" fill="#6CD4F4"/>
<path d="M308.769 0H414.913L487.925 177.852H491.606L564.619 0H670.763V314H587.32V132.469H584.866L514.921 311.547H464.61L394.666 131.242H392.211V314H308.769V0Z" fill="#6CD4F4"/>
<path d="M742.101 116.115H698.034V1.63542H741.653C753.434 1.63542 763.612 3.92724 772.187 8.51088C780.799 13.0573 787.435 19.616 792.095 28.187C796.793 36.7208 799.141 46.9501 799.141 58.875C799.141 70.7999 796.811 81.0479 792.151 89.6189C787.491 98.1527 780.892 104.711 772.355 109.295C763.817 113.841 753.732 116.115 742.101 116.115ZM729.127 89.7307H740.982C746.649 89.7307 751.477 88.8177 755.466 86.9917C759.492 85.1657 762.55 82.0168 764.637 77.5449C766.762 73.0731 767.825 66.8498 767.825 58.875C767.825 50.9002 766.744 44.6769 764.581 40.2051C762.456 35.7332 759.325 32.5843 755.186 30.7583C751.085 28.9323 746.052 28.0193 740.087 28.0193H729.127V89.7307Z" fill="white"/>
<path d="M813.528 116.115V1.63542H862.963C871.463 1.63542 878.901 3.18193 885.276 6.27496C891.651 9.36798 896.61 13.8212 900.151 19.6346C903.693 25.448 905.464 32.4166 905.464 40.5404C905.464 48.7388 903.637 55.6516 899.984 61.2786C896.367 66.9057 891.278 71.1539 884.717 74.0234C878.193 76.8928 870.568 78.3275 861.845 78.3275H832.317V54.1796H855.581C859.235 54.1796 862.348 53.7324 864.92 52.838C867.53 51.9064 869.525 50.4344 870.904 48.4221C872.321 46.4097 873.029 43.7825 873.029 40.5404C873.029 37.2611 872.321 34.5966 870.904 32.547C869.525 30.4602 867.53 28.9323 864.92 27.9634C862.348 26.9572 859.235 26.4541 855.581 26.4541H844.62V116.115H813.528ZM880.635 63.5704L909.267 116.115H875.49L847.528 63.5704H880.635Z" fill="white"/>
<path d="M1029.67 58.875C1029.67 71.6198 1027.19 82.3708 1022.23 91.1282C1017.27 99.8483 1010.58 106.463 1002.15 110.972C993.728 115.444 984.333 117.68 973.969 117.68C963.53 117.68 954.098 115.425 945.672 110.916C937.284 106.37 930.611 99.7365 925.652 91.0164C920.731 82.259 918.27 71.5452 918.27 58.875C918.27 46.1303 920.731 35.3978 925.652 26.6777C930.611 17.9204 937.284 11.3058 945.672 6.83394C954.098 2.32483 963.53 0.0702769 973.969 0.0702769C984.333 0.0702769 993.728 2.32483 1002.15 6.83394C1010.58 11.3058 1017.27 17.9204 1022.23 26.6777C1027.19 35.3978 1029.67 46.1303 1029.67 58.875ZM997.68 58.875C997.68 52.0182 996.767 46.2421 994.94 41.5466C993.15 36.8139 990.485 33.2364 986.943 30.8142C983.439 28.3547 979.114 27.1249 973.969 27.1249C968.824 27.1249 964.481 28.3547 960.939 30.8142C957.435 33.2364 954.769 36.8139 952.942 41.5466C951.153 46.2421 950.258 52.0182 950.258 58.875C950.258 65.7318 951.153 71.5266 952.942 76.2593C954.769 80.9547 957.435 84.5322 960.939 86.9917C964.481 89.414 968.824 90.6251 973.969 90.6251C979.114 90.6251 983.439 89.414 986.943 86.9917C990.485 84.5322 993.15 80.9547 994.94 76.2593C996.767 71.5266 997.68 65.7318 997.68 58.875Z" fill="white"/>
<path d="M1143.15 1.63542V116.115H1117.2L1075.82 55.9683H1075.15V116.115H1044.05V1.63542H1070.45L1111.16 61.5581H1112.06V1.63542H1143.15Z" fill="white"/>
<path d="M1157.86 116.115V1.63542H1240.4V26.6777H1188.95V46.3538H1236.15V71.3962H1188.95V91.0723H1240.17V116.115H1157.86Z" fill="white"/>
<path d="M759.772 230.798C759.474 227.072 758.076 224.165 755.578 222.078C753.117 219.991 749.371 218.948 744.338 218.948C741.131 218.948 738.503 219.339 736.452 220.122C734.439 220.867 732.948 221.892 731.979 223.196C731.009 224.5 730.506 225.991 730.469 227.668C730.394 229.047 730.636 230.295 731.196 231.413C731.792 232.494 732.724 233.481 733.992 234.376C735.259 235.233 736.881 236.015 738.857 236.723C740.833 237.431 743.182 238.065 745.903 238.624L755.298 240.636C761.636 241.978 767.061 243.748 771.572 245.947C776.083 248.145 779.774 250.735 782.644 253.716C785.515 256.66 787.621 259.977 788.964 263.666C790.343 267.355 791.051 271.38 791.089 275.74C791.051 283.268 789.169 289.64 785.441 294.857C781.712 300.074 776.381 304.043 769.447 306.764C762.55 309.484 754.254 310.844 744.561 310.844C734.607 310.844 725.92 309.372 718.501 306.428C711.12 303.484 705.378 298.957 701.277 292.845C697.214 286.696 695.163 278.833 695.126 269.256H724.653C724.839 272.759 725.715 275.703 727.281 278.088C728.847 280.473 731.047 282.28 733.88 283.51C736.751 284.74 740.162 285.355 744.114 285.355C747.432 285.355 750.209 284.945 752.446 284.125C754.683 283.305 756.379 282.168 757.535 280.715C758.691 279.262 759.287 277.603 759.325 275.74C759.287 273.989 758.71 272.461 757.591 271.157C756.51 269.815 754.72 268.622 752.223 267.579C749.725 266.498 746.351 265.492 742.101 264.561L730.692 262.101C720.552 259.902 712.555 256.232 706.702 251.089C700.886 245.909 697.996 238.847 698.034 229.904C697.996 222.637 699.935 216.283 703.85 210.843C707.801 205.365 713.263 201.098 720.235 198.042C727.244 194.986 735.278 193.458 744.338 193.458C753.583 193.458 761.58 195.005 768.328 198.098C775.076 201.191 780.277 205.551 783.931 211.178C787.621 216.768 789.486 223.308 789.523 230.798H759.772Z" fill="white"/>
<path d="M913.866 252.263C913.866 265.008 911.387 275.759 906.429 284.516C901.47 293.236 894.778 299.851 886.353 304.36C877.927 308.832 868.532 311.068 858.168 311.068C847.729 311.068 838.297 308.813 829.871 304.304C821.483 299.758 814.809 293.124 809.851 284.404C804.929 275.647 802.469 264.933 802.469 252.263C802.469 239.518 804.929 228.786 809.851 220.066C814.809 211.308 821.483 204.694 829.871 200.222C838.297 195.713 847.729 193.458 858.168 193.458C868.532 193.458 877.927 195.713 886.353 200.222C894.778 204.694 901.47 211.308 906.429 220.066C911.387 228.786 913.866 239.518 913.866 252.263ZM881.879 252.263C881.879 245.406 880.965 239.63 879.139 234.935C877.349 230.202 874.683 226.624 871.142 224.202C867.637 221.743 863.313 220.513 858.168 220.513C853.023 220.513 848.679 221.743 845.138 224.202C841.633 226.624 838.968 230.202 837.141 234.935C835.351 239.63 834.457 245.406 834.457 252.263C834.457 259.12 835.351 264.915 837.141 269.647C838.968 274.343 841.633 277.92 845.138 280.38C848.679 282.802 853.023 284.013 858.168 284.013C863.313 284.013 867.637 282.802 871.142 280.38C874.683 277.92 877.349 274.343 879.139 269.647C880.965 264.915 881.879 259.12 881.879 252.263Z" fill="white"/>
<path d="M928.252 309.503V195.023H959.345V284.46H1005.65V309.503H928.252Z" fill="white"/>
<path d="M1086 195.023H1117.09V268.362C1117.09 277.082 1115 284.628 1110.83 291C1106.69 297.335 1100.91 302.236 1093.49 305.702C1086.07 309.13 1077.46 310.844 1067.65 310.844C1057.77 310.844 1049.12 309.13 1041.71 305.702C1034.29 302.236 1028.51 297.335 1024.37 291C1020.27 284.628 1018.22 277.082 1018.22 268.362V195.023H1049.31V265.679C1049.31 269.219 1050.09 272.386 1051.66 275.181C1053.23 277.939 1055.39 280.1 1058.15 281.665C1060.94 283.231 1064.11 284.013 1067.65 284.013C1071.23 284.013 1074.4 283.231 1077.16 281.665C1079.92 280.1 1082.08 277.939 1083.65 275.181C1085.21 272.386 1086 269.219 1086 265.679V195.023Z" fill="white"/>
<path d="M1128.73 220.066V195.023H1228.28V220.066H1193.83V309.503H1163.18V220.066H1128.73Z" fill="white"/>
<path d="M1271.07 195.023V309.503H1239.98V195.023H1271.07Z" fill="white"/>
<path d="M1396.76 252.263C1396.76 265.008 1394.28 275.759 1389.32 284.516C1384.36 293.236 1377.67 299.851 1369.24 304.36C1360.82 308.832 1351.42 311.068 1341.06 311.068C1330.62 311.068 1321.19 308.813 1312.76 304.304C1304.37 299.758 1297.7 293.124 1292.74 284.404C1287.82 275.647 1285.36 264.933 1285.36 252.263C1285.36 239.518 1287.82 228.786 1292.74 220.066C1297.7 211.308 1304.37 204.694 1312.76 200.222C1321.19 195.713 1330.62 193.458 1341.06 193.458C1351.42 193.458 1360.82 195.713 1369.24 200.222C1377.67 204.694 1384.36 211.308 1389.32 220.066C1394.28 228.786 1396.76 239.518 1396.76 252.263ZM1364.77 252.263C1364.77 245.406 1363.86 239.63 1362.03 234.935C1360.24 230.202 1357.57 226.624 1354.03 224.202C1350.53 221.743 1346.2 220.513 1341.06 220.513C1335.91 220.513 1331.57 221.743 1328.03 224.202C1324.52 226.624 1321.86 230.202 1320.03 234.935C1318.24 239.63 1317.35 245.406 1317.35 252.263C1317.35 259.12 1318.24 264.915 1320.03 269.647C1321.86 274.343 1324.52 277.92 1328.03 280.38C1331.57 282.802 1335.91 284.013 1341.06 284.013C1346.2 284.013 1350.53 282.802 1354.03 280.38C1357.57 277.92 1360.24 274.343 1362.03 269.647C1363.86 264.915 1364.77 259.12 1364.77 252.263Z" fill="white"/>
<path d="M1510.24 195.023V309.503H1484.29L1442.91 249.356H1442.24V309.503H1411.14V195.023H1437.54L1478.25 254.946H1479.14V195.023H1510.24Z" fill="white"/>
<path d="M1586.68 230.798C1586.39 227.072 1584.99 224.165 1582.49 222.078C1580.03 219.991 1576.28 218.948 1571.25 218.948C1568.04 218.948 1565.41 219.339 1563.36 220.122C1561.35 220.867 1559.86 221.892 1558.89 223.196C1557.92 224.5 1557.42 225.991 1557.38 227.668C1557.31 229.047 1557.55 230.295 1558.11 231.413C1558.7 232.494 1559.64 233.481 1560.9 234.376C1562.17 235.233 1563.79 236.015 1565.77 236.723C1567.74 237.431 1570.09 238.065 1572.81 238.624L1582.21 240.636C1588.55 241.978 1593.97 243.748 1598.48 245.947C1602.99 248.145 1606.69 250.735 1609.56 253.716C1612.43 256.66 1614.53 259.977 1615.87 263.666C1617.25 267.355 1617.96 271.38 1618 275.74C1617.96 283.268 1616.08 289.64 1612.35 294.857C1608.62 300.074 1603.29 304.043 1596.36 306.764C1589.46 309.484 1581.17 310.844 1571.47 310.844C1561.52 310.844 1552.83 309.372 1545.41 306.428C1538.03 303.484 1532.29 298.957 1528.19 292.845C1524.12 286.696 1522.07 278.833 1522.04 269.256H1551.56C1551.75 272.759 1552.63 275.703 1554.19 278.088C1555.76 280.473 1557.96 282.28 1560.79 283.51C1563.66 284.74 1567.07 285.355 1571.03 285.355C1574.34 285.355 1577.12 284.945 1579.36 284.125C1581.59 283.305 1583.29 282.168 1584.45 280.715C1585.6 279.262 1586.2 277.603 1586.24 275.74C1586.2 273.989 1585.62 272.461 1584.5 271.157C1583.42 269.815 1581.63 268.622 1579.13 267.579C1576.64 266.498 1573.26 265.492 1569.01 264.561L1557.6 262.101C1547.46 259.902 1539.47 256.232 1533.61 251.089C1527.8 245.909 1524.91 238.847 1524.95 229.904C1524.91 222.637 1526.85 216.283 1530.76 210.843C1534.71 205.365 1540.17 201.098 1547.15 198.042C1554.16 194.986 1562.19 193.458 1571.25 193.458C1580.49 193.458 1588.49 195.005 1595.24 198.098C1601.99 201.191 1607.19 205.551 1610.84 211.178C1614.53 216.768 1616.4 223.308 1616.43 230.798H1586.68Z" fill="white"/>
</svg>
