<svg width="592" height="86" viewBox="0 0 592 86" fill="none" xmlns="http://www.w3.org/2000/svg">
<path d="M198.837 38.625C198.928 37.3409 198.587 36.3466 197.814 35.642C197.053 34.9375 195.848 34.5852 194.2 34.5852C193.109 34.5852 192.178 34.7273 191.405 35.0114C190.632 35.2841 190.024 35.6705 189.581 36.1705C189.138 36.6591 188.859 37.2273 188.746 37.875C188.643 38.3864 188.672 38.8409 188.831 39.2386C188.99 39.6364 189.268 39.9886 189.666 40.2955C190.075 40.6023 190.581 40.8693 191.183 41.0966C191.797 41.3239 192.484 41.5227 193.246 41.6932L196.109 42.375C197.768 42.75 199.206 43.25 200.422 43.875C201.649 44.4886 202.643 45.233 203.405 46.108C204.166 46.9716 204.689 47.9659 204.973 49.0909C205.257 50.2159 205.28 51.4773 205.041 52.875C204.678 55.0795 203.808 56.9716 202.433 58.5511C201.07 60.1307 199.286 61.3409 197.081 62.1818C194.888 63.0227 192.337 63.4432 189.428 63.4432C186.518 63.4432 184.047 63.0057 182.013 62.1307C179.99 61.2443 178.524 59.9091 177.615 58.125C176.706 56.3409 176.462 54.0909 176.882 51.375H184.945C184.82 52.5 184.962 53.4375 185.371 54.1875C185.791 54.9375 186.439 55.5057 187.314 55.892C188.189 56.2784 189.246 56.4716 190.484 56.4716C191.621 56.4716 192.615 56.3182 193.467 56.0114C194.331 55.7045 195.018 55.2784 195.53 54.733C196.053 54.1875 196.371 53.5625 196.484 52.858C196.598 52.2102 196.49 51.6477 196.161 51.1705C195.842 50.6932 195.297 50.2784 194.524 49.9261C193.763 49.5739 192.763 49.2557 191.524 48.9716L188.03 48.1193C185.143 47.4148 182.956 46.2898 181.467 44.7443C179.99 43.1989 179.467 41.1023 179.899 38.4545C180.263 36.2841 181.161 34.3864 182.592 32.7614C184.036 31.1364 185.859 29.875 188.064 28.9773C190.28 28.0682 192.717 27.6136 195.376 27.6136C198.081 27.6136 200.354 28.0739 202.195 28.9943C204.047 29.9034 205.382 31.1875 206.2 32.8466C207.03 34.4943 207.268 36.4205 206.916 38.625H198.837ZM207.632 63L213.428 28.0909H237.768L236.609 34.9432H220.706L219.547 42.1023H234.206L233.047 48.9716H218.388L217.229 56.1477H233.132L231.973 63H207.632ZM237.257 63L243.053 28.0909H257.473C260.087 28.0909 262.268 28.5625 264.018 29.5057C265.768 30.4375 267.013 31.7784 267.751 33.5284C268.49 35.267 268.661 37.3295 268.263 39.7159C267.876 42.125 267.013 44.1761 265.672 45.8693C264.342 47.5511 262.626 48.8352 260.524 49.7216C258.433 50.608 256.058 51.0511 253.399 51.0511H244.28L245.405 44.4034H252.956C254.217 44.4034 255.308 44.2386 256.229 43.9091C257.149 43.5682 257.882 43.0568 258.428 42.375C258.984 41.6818 259.354 40.7955 259.536 39.7159C259.706 38.6364 259.626 37.7443 259.297 37.0398C258.979 36.3239 258.416 35.7898 257.609 35.4375C256.814 35.0739 255.791 34.892 254.541 34.892H250.382L245.695 63H237.257ZM259.553 47.0455L265.604 63H256.399L250.536 47.0455H259.553ZM282.104 28.0909L285.666 53.6591H285.956L298.007 28.0909H307.45L289.876 63H278.643L272.661 28.0909H282.104ZM319.646 28.0909L313.851 63H305.413L311.209 28.0909H319.646ZM354.5 40.7386H346.08C346.125 39.8523 346.04 39.0625 345.824 38.3693C345.608 37.6648 345.267 37.0625 344.801 36.5625C344.335 36.0511 343.756 35.6648 343.062 35.4034C342.369 35.142 341.563 35.0114 340.642 35.0114C338.881 35.0114 337.284 35.4489 335.852 36.3239C334.42 37.1989 333.222 38.4602 332.256 40.108C331.29 41.7557 330.614 43.733 330.227 46.0398C329.875 48.267 329.881 50.125 330.244 51.6136C330.619 53.1023 331.313 54.2216 332.324 54.9716C333.335 55.7102 334.619 56.0795 336.176 56.0795C337.188 56.0795 338.125 55.9602 338.989 55.7216C339.864 55.4716 340.653 55.1136 341.358 54.6477C342.063 54.1818 342.67 53.6193 343.182 52.9602C343.705 52.2898 344.108 51.5455 344.392 50.7273H352.881C352.46 52.2614 351.767 53.7898 350.801 55.3125C349.847 56.8239 348.642 58.1932 347.188 59.4205C345.733 60.6477 344.045 61.6307 342.125 62.3693C340.205 63.108 338.068 63.4773 335.716 63.4773C332.5 63.4773 329.727 62.7557 327.398 61.3125C325.08 59.8693 323.403 57.7784 322.369 55.0398C321.347 52.2898 321.153 48.9602 321.79 45.0511C322.415 41.267 323.648 38.0795 325.489 35.4886C327.341 32.8977 329.591 30.9375 332.239 29.608C334.898 28.2784 337.733 27.6136 340.744 27.6136C342.926 27.6136 344.886 27.9091 346.625 28.5C348.375 29.0795 349.858 29.9318 351.074 31.0568C352.29 32.1705 353.193 33.5398 353.784 35.1648C354.386 36.7898 354.625 38.6477 354.5 40.7386ZM355.663 63L361.459 28.0909H385.8L384.641 34.9432H368.737L367.578 42.1023H382.237L381.078 48.9716H366.419L365.26 56.1477H381.163L380.004 63H355.663ZM408.18 38.625C408.271 37.3409 407.93 36.3466 407.158 35.642C406.396 34.9375 405.192 34.5852 403.544 34.5852C402.453 34.5852 401.521 34.7273 400.749 35.0114C399.976 35.2841 399.368 35.6705 398.925 36.1705C398.482 36.6591 398.203 37.2273 398.089 37.875C397.987 38.3864 398.016 38.8409 398.175 39.2386C398.334 39.6364 398.612 39.9886 399.01 40.2955C399.419 40.6023 399.925 40.8693 400.527 41.0966C401.141 41.3239 401.828 41.5227 402.589 41.6932L405.453 42.375C407.112 42.75 408.55 43.25 409.766 43.875C410.993 44.4886 411.987 45.233 412.749 46.108C413.51 46.9716 414.033 47.9659 414.317 49.0909C414.601 50.2159 414.624 51.4773 414.385 52.875C414.021 55.0795 413.152 56.9716 411.777 58.5511C410.413 60.1307 408.629 61.3409 406.425 62.1818C404.232 63.0227 401.68 63.4432 398.771 63.4432C395.862 63.4432 393.391 63.0057 391.357 62.1307C389.334 61.2443 387.868 59.9091 386.959 58.125C386.05 56.3409 385.805 54.0909 386.226 51.375H394.288C394.163 52.5 394.305 53.4375 394.714 54.1875C395.135 54.9375 395.783 55.5057 396.658 55.892C397.533 56.2784 398.589 56.4716 399.828 56.4716C400.964 56.4716 401.959 56.3182 402.811 56.0114C403.675 55.7045 404.362 55.2784 404.874 54.733C405.396 54.1875 405.714 53.5625 405.828 52.858C405.942 52.2102 405.834 51.6477 405.504 51.1705C405.186 50.6932 404.641 50.2784 403.868 49.9261C403.107 49.5739 402.107 49.2557 400.868 48.9716L397.374 48.1193C394.487 47.4148 392.3 46.2898 390.811 44.7443C389.334 43.1989 388.811 41.1023 389.243 38.4545C389.607 36.2841 390.504 34.3864 391.936 32.7614C393.379 31.1364 395.203 29.875 397.408 28.9773C399.624 28.0682 402.061 27.6136 404.72 27.6136C407.425 27.6136 409.697 28.0739 411.538 28.9943C413.391 29.9034 414.726 31.1875 415.544 32.8466C416.374 34.4943 416.612 36.4205 416.26 38.625H408.18Z" fill="white"/>
<rect width="168" height="10" transform="matrix(-1 0 0 1 464 76)" fill="white"/>
<rect x="136" width="168" height="10" fill="white"/>
</svg>
